<?xml version="1.0" standalone="no"?>
<!DOCTYPE svg PUBLIC "-//W3C//DTD SVG 20010904//EN"
 "http://www.w3.org/TR/2001/REC-SVG-20010904/DTD/svg10.dtd">
<svg version="1.0" xmlns="http://www.w3.org/2000/svg"
 width="160.000000pt" height="160.000000pt" viewBox="0 0 160.000000 160.000000"
 preserveAspectRatio="xMidYMid meet">
<metadata>
Created by potrace 1.14, written by Peter Selinger 2001-2017
</metadata>
<g transform="translate(0.000000,160.000000) scale(0.100000,-0.100000)"
fill="#000000" stroke="none">
<path d="M1283 1557 c-35 -19 -65 -52 -89 -100 -21 -40 -26 -62 -33 -130 -1
-5 -20 2 -43 16 -81 46 -227 87 -313 87 -67 0 -213 -37 -288 -73 l-67 -33 -11
40 c-24 86 -53 133 -107 168 -57 38 -135 10 -166 -58 -28 -64 -32 -68 -65 -75
-54 -11 -74 -37 -69 -91 3 -25 11 -52 19 -60 54 -53 131 -90 191 -92 32 -1 32
-3 12 -73 -29 -101 -19 -205 36 -353 17 -48 31 -105 31 -132 1 -25 8 -59 16
-75 14 -26 13 -29 -11 -50 -14 -12 -63 -33 -108 -47 -125 -38 -187 -104 -172
-182 8 -43 46 -81 95 -96 34 -10 41 -17 50 -52 14 -53 24 -64 64 -72 43 -8 66
0 102 35 44 41 73 110 79 183 4 59 7 66 51 110 25 26 50 45 54 42 10 -6 24
-84 28 -148 1 -18 12 -28 54 -46 45 -20 70 -23 186 -24 95 -1 136 3 138 11 3
7 10 10 17 7 7 -3 19 2 26 10 7 9 16 14 20 11 14 -8 29 20 33 61 5 48 17 94
25 94 3 0 21 -17 39 -37 22 -25 42 -66 58 -121 61 -195 211 -242 275 -85 19
45 26 52 56 58 50 9 74 37 74 85 0 77 -93 145 -218 158 -49 6 -75 14 -91 29
l-23 22 21 30 c15 20 23 50 26 88 2 32 20 105 41 163 33 93 37 116 38 200 0
63 -5 109 -16 138 -17 45 -14 50 29 58 67 12 142 63 168 114 17 33 14 80 -7
112 -14 20 -32 32 -108 68 -8 4 -16 16 -18 26 -7 41 -25 74 -46 81 -32 11 -62
11 -83 0z"/>
</g>
</svg>
